<mxfile host="app.diagrams.net" modified="2024-01-20T02:08:26.313Z" agent="Mozilla/5.0 (Windows NT 10.0; Win64; x64; rv:121.0) Gecko/20100101 Firefox/121.0" version="22.1.17" etag="vAWVdr-t8fTdGsR63z7c" type="github">
  <diagram name="Page-1" id="qQo_SHekNS05_HGQM1Xa">
    <mxGraphModel>
      <root>
        <mxCell id="0" />
        <mxCell id="1" parent="0" />
      </root>
    </mxGraphModel>
  </diagram>
</mxfile>
